<svg width="20" height="16" viewBox="0 0 20 16" fill="none" xmlns="http://www.w3.org/2000/svg">
<g clip-path="url(#clip0)">
<path d="M16.5042 2.81537H15.1238V1.35428H4.95405V2.81537H3.57422V1.08104C3.57422 0.483885 4.06741 0 4.67556 0H15.3294C15.9781 0 16.5037 0.51568 16.5037 1.15208V2.81537H16.5042Z" fill="white"/>
<path d="M17.7018 3.84375H2.30178C1.14322 3.84375 0.195312 4.77376 0.195312 5.91045V11.0822C0.195312 12.2188 1.14322 13.1488 2.30178 13.1488H3.53679V15.2871C3.53679 15.6791 3.8639 16 4.26342 16H15.813C16.2125 16 16.5397 15.6791 16.5397 15.2871V13.1488H17.7018C18.8603 13.1488 19.8082 12.2188 19.8082 11.0822V5.91045C19.8082 4.77376 18.8603 3.84375 17.7018 3.84375ZM15.1229 14.7525H4.95309V9.55002H15.1229V14.7525ZM16.8298 7.30497C16.3482 7.30497 15.9583 6.92193 15.9583 6.44997C15.9583 5.97751 16.3488 5.59498 16.8298 5.59498C17.3113 5.59498 17.7012 5.97801 17.7012 6.44997C17.7018 6.92193 17.3113 7.30497 16.8298 7.30497Z" fill="white"/>
<path d="M13.6328 10.5834H6.44141V11.3673H13.6328V10.5834Z" fill="white"/>
<path d="M10.945 12.0803H6.44141V12.9353H10.945V12.0803Z" fill="white"/>
</g>
<defs>
<clipPath id="clip0">
<rect width="19.6129" height="16" fill="white" transform="translate(0.195312)"/>
</clipPath>
</defs>
</svg>
