<svg width="172" height="50" viewBox="0 0 172 50" fill="none" xmlns="http://www.w3.org/2000/svg">
<path fill-rule="evenodd" clip-rule="evenodd" d="M0 8.69559V49.9999H23.9496V8.69559H0Z" fill="#004D6E"/>
<path fill-rule="evenodd" clip-rule="evenodd" d="M24.0786 -6.10352e-05H61.9565L41.2574 8.69559H0L24.0786 -6.10352e-05Z" fill="url(#paint0_linear)"/>
<path fill-rule="evenodd" clip-rule="evenodd" d="M24.0786 19.5651H61.9565L41.2574 29.3478H0L24.0786 19.5651Z" fill="url(#paint1_linear)"/>
<path fill-rule="evenodd" clip-rule="evenodd" d="M24.0786 39.1304H61.9565L41.2574 49.9999H0L24.0786 39.1304Z" fill="url(#paint2_linear)"/>
<path opacity="0.4" d="M41.3034 8.69559H23.9121V49.9999H41.3034V8.69559Z" fill="white"/>
<path d="M84.7273 21.9055H76.9552V17.518H85.1972V13.6004H72.1914V34.7232H85.6358V30.8056H76.9552V25.7914H84.7273V21.9055ZM102.873 19.398H98.1098V28.518C98.1098 28.9256 98.0467 29.2704 97.9217 29.5522C97.8272 29.8078 97.6756 30.0642 97.4724 30.3147C97.2632 30.571 97.0017 30.7794 96.6779 30.952C96.3592 31.1191 95.9785 31.2084 95.5392 31.2136C94.9756 31.2084 94.516 31.0675 94.1604 30.7794C93.8052 30.4976 93.5445 30.0908 93.3774 29.5578C93.2103 29.0248 93.1262 28.3874 93.1262 27.6409V19.398H88.3632V28.3925C88.3735 29.9646 88.6029 31.2442 89.0625 32.2264C89.5221 33.2083 90.1547 33.9294 90.9643 34.389C91.7684 34.8486 92.6979 35.0733 93.7528 35.0681C94.4426 35.0629 95.0534 34.9736 95.5813 34.8066C96.1143 34.6403 96.5739 34.4255 96.9604 34.164C97.3518 33.9084 97.6756 33.6318 97.9371 33.3492C98.1983 33.0623 98.4019 32.8011 98.5484 32.5606H98.642L98.8615 34.7232H102.998C102.967 34.081 102.936 33.3492 102.915 32.5344C102.889 31.7152 102.873 30.8056 102.873 29.8027V19.398ZM106.696 34.7232H111.46V26.9511C111.46 26.763 111.465 26.5748 111.481 26.3918C111.497 26.2144 111.523 26.0418 111.553 25.885C111.715 25.1385 112.081 24.5539 112.64 24.1253C113.204 23.697 113.931 23.4776 114.813 23.472C115.075 23.472 115.309 23.4879 115.513 23.5089C115.717 23.5351 115.915 23.5665 116.098 23.5982V19.1162C115.931 19.0845 115.779 19.0583 115.633 19.0432C115.487 19.0277 115.309 19.0226 115.096 19.0226C114.714 19.0226 114.327 19.0793 113.925 19.2051C113.523 19.3254 113.137 19.5187 112.755 19.7743C112.379 20.0299 112.034 20.3644 111.726 20.7669C111.412 21.1685 111.157 21.6543 110.958 22.2187H110.833L110.645 19.398H106.571C106.602 19.8318 106.628 20.297 106.644 20.7879C106.665 21.284 106.675 21.8269 106.685 22.4278C106.691 23.0231 106.696 23.697 106.696 24.4436V34.7232ZM125.688 19.0226C124.446 19.0277 123.323 19.2158 122.314 19.5964C121.312 19.9731 120.449 20.5156 119.729 21.2265C119.008 21.9369 118.449 22.793 118.063 23.7959C117.676 24.7936 117.483 25.9219 117.478 27.1709C117.483 28.4084 117.686 29.5209 118.089 30.4924C118.485 31.4692 119.045 32.2947 119.76 32.9738C120.481 33.658 121.317 34.1747 122.278 34.5299C123.239 34.8851 124.278 35.0629 125.407 35.0681C126.232 35.0681 127.042 34.9641 127.825 34.755C128.608 34.5458 129.345 34.2323 130.029 33.8044C130.708 33.3806 131.309 32.8432 131.831 32.1903C132.348 31.5426 132.751 30.7742 133.048 29.892C133.341 29.0089 133.487 28.0112 133.492 26.8884C133.487 25.7231 133.299 24.6634 132.927 23.7022C132.557 22.7413 132.03 21.9158 131.34 21.2157C130.655 20.5156 129.831 19.9782 128.88 19.5964C127.924 19.2202 126.859 19.0277 125.688 19.0226ZM125.532 22.4385C126.07 22.4437 126.535 22.5742 126.921 22.835C127.302 23.0965 127.621 23.4406 127.862 23.88C128.107 24.3185 128.284 24.8043 128.399 25.3477C128.515 25.885 128.572 26.4442 128.572 27.0134C128.572 27.9488 128.446 28.7636 128.201 29.4578C127.955 30.1475 127.61 30.6857 127.156 31.0675C126.702 31.4533 126.164 31.647 125.532 31.6521C124.852 31.6414 124.278 31.443 123.813 31.0413C123.348 30.6437 122.999 30.1003 122.758 29.4113C122.518 28.7164 122.397 27.9333 122.397 27.0447C122.397 26.476 122.455 25.9168 122.57 25.3739C122.686 24.8305 122.868 24.3344 123.119 23.8959C123.369 23.4514 123.693 23.1017 124.09 22.8402C124.487 22.5794 124.968 22.4437 125.532 22.4385ZM141.202 12.4407H136.438V34.7232H141.202V29.9289L142.393 28.4243L146.123 34.7232H151.982L145.715 25.6032L151.199 19.398H145.464L142.362 24.005C142.174 24.2872 141.985 24.5844 141.803 24.8936C141.614 25.2068 141.437 25.5255 141.265 25.8545H141.202V12.4407ZM158.501 34.7232V19.398H153.737V34.7232H158.501ZM156.15 12.7542C155.634 12.7593 155.189 12.8641 154.808 13.0725C154.432 13.2817 154.14 13.5635 153.93 13.9191C153.721 14.2743 153.617 14.6815 153.612 15.1363C153.617 15.58 153.716 15.982 153.92 16.3372C154.124 16.6976 154.406 16.9798 154.777 17.1941C155.148 17.4033 155.587 17.5128 156.088 17.518C156.62 17.5128 157.081 17.4033 157.467 17.1941C157.848 16.9798 158.141 16.6976 158.345 16.3372C158.554 15.982 158.658 15.58 158.658 15.1363C158.647 14.6815 158.538 14.2743 158.334 13.9191C158.13 13.5635 157.848 13.2817 157.477 13.0725C157.106 12.8641 156.662 12.7593 156.15 12.7542ZM162.983 16.5464V19.398H160.946V22.9084H162.983V29.176C162.983 30.2579 163.092 31.1715 163.312 31.918C163.531 32.6658 163.86 33.2659 164.299 33.7203C164.696 34.1176 165.203 34.4363 165.819 34.6708C166.435 34.9113 167.13 35.0316 167.903 35.0367C168.571 35.0316 169.172 34.9947 169.71 34.9169C170.248 34.8379 170.666 34.7442 170.974 34.6295L170.943 31.0254C170.802 31.0568 170.661 31.0822 170.53 31.0981C170.395 31.1191 170.248 31.1294 170.091 31.1402C169.934 31.1453 169.747 31.1505 169.533 31.1505C169.068 31.1505 168.692 31.0568 168.42 30.8635C168.143 30.6702 167.945 30.3726 167.824 29.9753C167.709 29.5788 167.647 29.072 167.652 28.4556V22.9084H171.068V19.398H167.652V15.2617L162.983 16.5464Z" fill="white"/>
<defs>
<linearGradient id="paint0_linear" x1="2.22414e-07" y1="8.69559" x2="59.7674" y2="0.460997" gradientUnits="userSpaceOnUse">
<stop stop-color="#00A0E3"/>
<stop offset="1" stop-color="#82D0F5"/>
</linearGradient>
<linearGradient id="paint1_linear" x1="2.22414e-07" y1="29.3478" x2="60.002" y2="21.9994" gradientUnits="userSpaceOnUse">
<stop stop-color="#00A0E3"/>
<stop offset="1" stop-color="#82D0F5"/>
</linearGradient>
<linearGradient id="paint2_linear" x1="2.22414e-07" y1="49.9999" x2="60.1709" y2="43.3678" gradientUnits="userSpaceOnUse">
<stop stop-color="#00A0E3"/>
<stop offset="1" stop-color="#82D0F5"/>
</linearGradient>
</defs>
</svg>
