<svg width="26" height="22" viewBox="0 0 26 22" fill="none" xmlns="http://www.w3.org/2000/svg">
<path d="M23.05 2.00467V0H21.95C18.75 0 14.6 1.13084 12.7 4.26636C10.75 1.13084 6.6 0 3.45 0H2.35V2.00467H0V20.5093H8.1C9.65 22 9.95 22 10.15 22H15.4C15.55 22 15.9 22 17.45 20.5093H26V2.00467H23.05ZM13.2 5.4486C14.65 2.21028 18.8 1.02804 21.95 1.02804H22.05V15.986H21.95C18.05 16.0374 15.1 16.8084 13.2 18.3505V5.4486ZM3.35 1.02804H3.45C6.6 1.02804 10.75 2.21028 12.2 5.4486V18.3505C10.25 16.8598 7.35 16.0374 3.45 15.986H3.35V1.02804ZM25 19.4813H17L16.85 19.6355C16.3 20.2009 15.55 20.8692 15.3 21.0234H10.2C9.95 20.8692 9.2 20.2523 8.65 19.6355L8.5 19.4813H1V3.03271H2.35V17.014H3.4C7.3 17.0654 10.15 17.8365 11.85 19.3785L12 19.4813H13.35L13.5 19.3785C15.25 17.8365 18.1 17.0654 21.95 17.014H23V3.03271H25V19.4813Z" fill="#82D0F5"/>
</svg>
