<svg width="71" height="70" viewBox="0 0 71 70" fill="none" xmlns="http://www.w3.org/2000/svg">
<g clip-path="url(#clip0)">
<path d="M42.8438 61.25H47.2188L42.8438 56.875" stroke="#00A0E3" stroke-miterlimit="10" stroke-linecap="round" stroke-linejoin="round"/>
<path d="M42.8438 68.9062H69.0938L42.8438 42.6562" stroke="#00A0E3" stroke-miterlimit="10" stroke-linecap="round" stroke-linejoin="round"/>
<path d="M16.5938 53.5938L1.28125 68.9062H16.5938" stroke="#00A0E3" stroke-miterlimit="10" stroke-linecap="round" stroke-linejoin="round"/>
<path d="M69.0918 60.1563L60.2461 21.9352" stroke="#00A0E3" stroke-miterlimit="10" stroke-linecap="round" stroke-linejoin="round"/>
<path d="M54.668 28.1696L61.3754 52.4399" stroke="#00A0E3" stroke-miterlimit="10" stroke-linecap="round" stroke-linejoin="round"/>
<path d="M49.4039 32.8125L47.7578 38.8227" stroke="#00A0E3" stroke-miterlimit="10" stroke-linecap="round" stroke-linejoin="round"/>
<path d="M42.4453 33.5098L45.125 21.9352" stroke="#00A0E3" stroke-miterlimit="10" stroke-linecap="round" stroke-linejoin="round"/>
<path d="M49.4062 13.8578V4.375C49.4062 2.56211 50.8746 1.09375 52.6875 1.09375C54.5004 1.09375 55.9688 2.56211 55.9688 4.375V13.8551" stroke="#00A0E3" stroke-miterlimit="10" stroke-linecap="round" stroke-linejoin="round"/>
<path d="M52.6875 22.9688C53.8956 22.9688 54.875 21.9894 54.875 20.7812C54.875 19.5731 53.8956 18.5938 52.6875 18.5938C51.4794 18.5938 50.5 19.5731 50.5 20.7812C50.5 21.9894 51.4794 22.9688 52.6875 22.9688Z" stroke="#00A0E3" stroke-miterlimit="10" stroke-linecap="round" stroke-linejoin="round"/>
<path d="M52.6875 28.4375C56.9159 28.4375 60.3438 25.0097 60.3438 20.7812C60.3438 16.5528 56.9159 13.125 52.6875 13.125C48.4591 13.125 45.0312 16.5528 45.0312 20.7812C45.0312 25.0097 48.4591 28.4375 52.6875 28.4375Z" stroke="#00A0E3" stroke-miterlimit="10" stroke-linecap="round" stroke-linejoin="round"/>
<path d="M29.7188 9.84375L23.1562 22.9688V64.5312C23.1562 66.9484 25.1141 68.9062 27.5312 68.9062H31.9062C34.3234 68.9062 36.2812 66.9484 36.2812 64.5312V22.9688L29.7188 9.84375Z" stroke="#00A0E3" stroke-miterlimit="10" stroke-linecap="round" stroke-linejoin="round"/>
<path d="M28.625 24.0625H36.2812" stroke="#00A0E3" stroke-miterlimit="10" stroke-linecap="round" stroke-linejoin="round"/>
<path d="M28.625 12.0312H30.8125" stroke="#00A0E3" stroke-miterlimit="10" stroke-linecap="round" stroke-linejoin="round"/>
<path d="M29.7188 24.0625V61.25" stroke="#00A0E3" stroke-miterlimit="10" stroke-linecap="round" stroke-linejoin="round"/>
<path d="M28.625 61.25H36.2812" stroke="#00A0E3" stroke-miterlimit="10" stroke-linecap="round" stroke-linejoin="round"/>
<path d="M1.28125 25.1562H4.5625" stroke="#00A0E3" stroke-miterlimit="10" stroke-linecap="round" stroke-linejoin="round"/>
<path d="M1.28125 60.1562V4.375H16.5938V44.8438" stroke="#00A0E3" stroke-miterlimit="10" stroke-linecap="round" stroke-linejoin="round"/>
<path d="M1.28125 33.9062H5.65625" stroke="#00A0E3" stroke-miterlimit="10" stroke-linecap="round" stroke-linejoin="round"/>
<path d="M1.28125 42.6562H4.5625" stroke="#00A0E3" stroke-miterlimit="10" stroke-linecap="round" stroke-linejoin="round"/>
<path d="M1.28125 51.4062H5.65625" stroke="#00A0E3" stroke-miterlimit="10" stroke-linecap="round" stroke-linejoin="round"/>
<path d="M8.9375 16.4062C10.7497 16.4062 12.2188 14.9372 12.2188 13.125C12.2188 11.3128 10.7497 9.84375 8.9375 9.84375C7.12532 9.84375 5.65625 11.3128 5.65625 13.125C5.65625 14.9372 7.12532 16.4062 8.9375 16.4062Z" stroke="#00A0E3" stroke-miterlimit="10" stroke-linecap="round" stroke-linejoin="round"/>
</g>
<defs>
<clipPath id="clip0">
<rect width="70" height="70" fill="white" transform="translate(0.1875)"/>
</clipPath>
</defs>
</svg>
