<svg width="71" height="68" viewBox="0 0 71 68" fill="none" xmlns="http://www.w3.org/2000/svg">
<path d="M53.7609 49.9782V66.7174H0.5V1.28259H53.7609V14.9782" stroke="#00A0E3" stroke-miterlimit="10" stroke-linecap="round" stroke-linejoin="round"/>
<path d="M0.5 10.4131H53.7609" stroke="#00A0E3" stroke-miterlimit="10" stroke-linecap="round" stroke-linejoin="round"/>
<path d="M5.06641 5.84778H8.10988" stroke="#00A0E3" stroke-miterlimit="10" stroke-linecap="round" stroke-linejoin="round"/>
<path d="M9.62891 5.84778H12.6724" stroke="#00A0E3" stroke-miterlimit="10" stroke-linecap="round" stroke-linejoin="round"/>
<path d="M17.2381 33.2391H6.58594V18.0217H17.2381" stroke="#00A0E3" stroke-miterlimit="10" stroke-linecap="round" stroke-linejoin="round"/>
<path d="M5.06641 40.8478H17.2403" stroke="#00A0E3" stroke-miterlimit="10" stroke-linecap="round" stroke-linejoin="round"/>
<path d="M5.06641 46.9348H17.2403" stroke="#00A0E3" stroke-miterlimit="10" stroke-linecap="round" stroke-linejoin="round"/>
<path d="M5.06641 53.0217H24.849" stroke="#00A0E3" stroke-miterlimit="10" stroke-linecap="round" stroke-linejoin="round"/>
<path d="M5.06641 59.1086H24.849" stroke="#00A0E3" stroke-miterlimit="10" stroke-linecap="round" stroke-linejoin="round"/>
<path d="M67.4569 18.0217H24.8482C23.1743 18.0217 21.8047 19.3913 21.8047 21.0652V43.8913C21.8047 45.5652 23.1743 46.9348 24.8482 46.9348H30.9351L35.5003 54.5435L40.0656 46.9348H67.4569C69.1308 46.9348 70.5003 45.5652 70.5003 43.8913V21.0652C70.5003 19.3913 69.1308 18.0217 67.4569 18.0217Z" stroke="#00A0E3" stroke-miterlimit="10" stroke-linecap="round" stroke-linejoin="round"/>
<path d="M50.7188 27.1521L61.3709 37.8043" stroke="#00A0E3" stroke-miterlimit="10" stroke-linecap="round" stroke-linejoin="round"/>
<path d="M61.3709 27.1521L50.7188 37.8043" stroke="#00A0E3" stroke-miterlimit="10" stroke-linecap="round" stroke-linejoin="round"/>
<path d="M43.1075 27.1521L35.4988 37.8043L30.9336 33.2391" stroke="#00A0E3" stroke-miterlimit="10" stroke-linecap="round" stroke-linejoin="round"/>
</svg>
