<svg width="90" height="72" viewBox="0 0 90 72" fill="none" xmlns="http://www.w3.org/2000/svg">
<path d="M45.0035 63.0273C57.6065 63.0273 67.8233 52.8105 67.8233 40.2074C67.8233 27.6044 57.6065 17.3876 45.0035 17.3876C32.4004 17.3876 22.1836 27.6044 22.1836 40.2074C22.1836 52.8105 32.4004 63.0273 45.0035 63.0273Z" stroke="#00A0E3" stroke-miterlimit="10" stroke-linecap="round" stroke-linejoin="round"/>
<path d="M67.6197 14.5779C74.1519 20.8106 78.2309 29.5819 78.2309 39.2947C78.2309 53.5999 69.4025 65.8656 56.8516 71" stroke="#00A0E3" stroke-miterlimit="10" stroke-linecap="round" stroke-linejoin="round"/>
<path d="M74.8086 57.1227C80.2141 57.9356 86.5038 56.6805 88.1297 46.1691C81.4264 45.1422 76.0352 49.1927 74.8086 57.1227Z" stroke="#00A0E3" stroke-miterlimit="10" stroke-linecap="round" stroke-linejoin="round"/>
<path d="M63.9102 67.9763C68.2887 71.2424 74.4216 73.0965 80.8682 64.5818C75.4627 60.5456 68.7736 61.5725 63.9102 67.9763Z" stroke="#00A0E3" stroke-miterlimit="10" stroke-linecap="round" stroke-linejoin="round"/>
<path d="M78.9859 41.3769C84.4341 40.8064 90.1961 38.0109 89.0837 27.4282C82.3376 28.1128 78.1444 33.3899 78.9859 41.3769Z" stroke="#00A0E3" stroke-miterlimit="10" stroke-linecap="round" stroke-linejoin="round"/>
<path d="M76.4933 27.2855C81.1571 24.4473 85.1506 19.4697 79.5455 10.3845C73.7692 13.8931 72.2716 20.4538 76.4933 27.2855Z" stroke="#00A0E3" stroke-miterlimit="10" stroke-linecap="round" stroke-linejoin="round"/>
<path d="M68.832 15.2482C70.1726 9.98533 69.5308 3.63855 59.1335 1C57.4505 7.51793 60.9876 13.2514 68.832 15.2482Z" stroke="#00A0E3" stroke-miterlimit="10" stroke-linecap="round" stroke-linejoin="round"/>
<path d="M22.3808 14.5779C15.8343 20.8106 11.7695 29.5677 11.7695 39.2804C11.7695 53.5856 20.598 65.8513 33.1489 70.9858" stroke="#00A0E3" stroke-miterlimit="10" stroke-linecap="round" stroke-linejoin="round"/>
<path d="M15.1883 57.1227C9.78283 57.9356 3.4931 56.6805 1.86719 46.1691C8.57053 45.1422 13.9617 49.1927 15.1883 57.1227Z" stroke="#00A0E3" stroke-miterlimit="10" stroke-linecap="round" stroke-linejoin="round"/>
<path d="M26.0908 67.9763C21.7123 71.2424 15.5794 73.0965 9.13281 64.5818C14.5383 60.5456 21.2273 61.5725 26.0908 67.9763Z" stroke="#00A0E3" stroke-miterlimit="10" stroke-linecap="round" stroke-linejoin="round"/>
<path d="M11.0142 41.3769C5.56599 40.8064 -0.196034 38.0109 0.916435 27.4282C7.66256 28.1128 11.8557 33.3899 11.0142 41.3769Z" stroke="#00A0E3" stroke-miterlimit="10" stroke-linecap="round" stroke-linejoin="round"/>
<path d="M13.5117 27.2855C8.84784 24.4473 4.85436 19.4697 10.4595 10.3845C16.2358 13.8931 17.7333 20.4538 13.5117 27.2855Z" stroke="#00A0E3" stroke-miterlimit="10" stroke-linecap="round" stroke-linejoin="round"/>
<path d="M21.1702 15.2482C19.8153 9.98533 20.4714 3.63855 30.8687 1C32.5516 7.51793 29.0146 13.2514 21.1702 15.2482Z" stroke="#00A0E3" stroke-miterlimit="10" stroke-linecap="round" stroke-linejoin="round"/>
<path d="M32.6393 16.0753C23.8965 20.568 17.9062 29.6959 17.9062 40.2073C17.9062 48.123 21.315 55.2257 26.7204 60.1747" stroke="#00A0E3" stroke-miterlimit="10" stroke-linecap="round" stroke-linejoin="round"/>
<path d="M63.2618 60.1749C68.6673 55.2258 72.076 48.1231 72.076 40.2075C72.076 29.4964 65.8576 20.2401 56.8438 15.833" stroke="#00A0E3" stroke-miterlimit="10" stroke-linecap="round" stroke-linejoin="round"/>
<path d="M44.9855 24.533L49.8348 34.8162L60.6742 35.9286L52.8299 44.1295L54.684 54.484L44.9855 49.9058L35.2871 54.5126L37.1412 44.1295L29.2969 35.9286L40.1363 34.8162L44.9855 24.533Z" stroke="#00A0E3" stroke-miterlimit="10" stroke-linecap="round" stroke-linejoin="round"/>
</svg>
