<svg width="89" height="78" viewBox="0 0 89 78" fill="none" xmlns="http://www.w3.org/2000/svg">
<path d="M44.2092 76.1429C31.4126 76.1429 20.1376 69.4943 13.5742 59.4286" stroke="#00A0E3" stroke-miterlimit="10" stroke-linecap="round" stroke-linejoin="round"/>
<path d="M12.457 20.4286C18.782 9.32289 30.6437 1.85718 44.2104 1.85718" stroke="#00A0E3" stroke-miterlimit="10" stroke-linecap="round" stroke-linejoin="round"/>
<path d="M16.3763 55.7144H2.04297V24.1429H16.3763" stroke="#00A0E3" stroke-miterlimit="10" stroke-linecap="round" stroke-linejoin="round"/>
<path d="M44.2104 71.1657C61.7472 71.1657 75.9637 56.7646 75.9637 38.9999C75.9637 21.2353 61.7472 6.83423 44.2104 6.83423C26.6735 6.83423 12.457 21.2353 12.457 38.9999C12.457 56.7646 26.6735 71.1657 44.2104 71.1657Z" stroke="#00A0E3" stroke-miterlimit="10" stroke-linecap="round" stroke-linejoin="round"/>
<path d="M44.2109 76.1429C57.0076 76.1429 68.2826 69.4943 74.8459 59.4286" stroke="#00A0E3" stroke-miterlimit="10" stroke-linecap="round" stroke-linejoin="round"/>
<path d="M75.9643 20.4286C69.6393 9.32289 57.7776 1.85718 44.2109 1.85718" stroke="#00A0E3" stroke-miterlimit="10" stroke-linecap="round" stroke-linejoin="round"/>
<path d="M72.043 55.7144H86.3763V24.1429H72.4338" stroke="#00A0E3" stroke-miterlimit="10" stroke-linecap="round" stroke-linejoin="round"/>
</svg>
