<svg width="73" height="70" viewBox="0 0 73 70" fill="none" xmlns="http://www.w3.org/2000/svg">
<path d="M10.8205 41.7021C9.13752 38.083 8.19922 34.0468 8.19922 29.7873C8.19922 14.1638 20.8737 1.48938 36.4971 1.48938C52.1205 1.48938 64.795 14.1638 64.795 29.7873C64.795 34.0468 63.8567 38.083 62.1737 41.7021" stroke="#00A0E3" stroke-miterlimit="10" stroke-linecap="round" stroke-linejoin="round"/>
<path d="M18.6252 47.6596V44.6809H2.24219L9.689 53.6171L2.24219 62.5532H12.6677" stroke="#00A0E3" stroke-miterlimit="10" stroke-linecap="round" stroke-linejoin="round"/>
<path d="M54.3711 47.6596V44.6809H70.7541L63.3073 53.6171L70.7541 62.5532H60.3285" stroke="#00A0E3" stroke-miterlimit="10" stroke-linecap="round" stroke-linejoin="round"/>
<path d="M57.3467 50.6383H15.6445V68.5106H57.3467V50.6383Z" stroke="#00A0E3" stroke-miterlimit="10" stroke-linecap="round" stroke-linejoin="round"/>
<path d="M28.542 36.409V16.6567L22.6445 19.6567M41.3719 36.5218C39.8858 36.5218 38.5596 36.1174 37.3933 35.3085C36.2458 34.4808 35.3522 33.3144 34.7126 31.8095C34.073 30.2858 33.7532 28.5269 33.7532 26.5328C33.7532 24.5388 34.073 22.7893 34.7126 21.2844C35.3522 19.7606 36.2458 18.5943 37.3933 17.7854C38.5596 16.9577 39.8858 16.5438 41.3719 16.5438C42.8769 16.5438 44.2031 16.9577 45.3506 17.7854C46.4981 18.5943 47.3917 19.7606 48.0313 21.2844C48.6709 22.7893 48.9907 24.5388 48.9907 26.5328C48.9907 28.5269 48.6709 30.2858 48.0313 31.8095C47.3917 33.3144 46.4981 34.4808 45.3506 35.3085C44.2031 36.1174 42.8769 36.5218 41.3719 36.5218Z" stroke="#00A0E3"/>
</svg>
