<svg width="16" height="17" viewBox="0 0 16 17" fill="none" xmlns="http://www.w3.org/2000/svg">
<path fill-rule="evenodd" clip-rule="evenodd" d="M12.4052 13.3035C13.684 13.0286 15.2934 11.5404 15.6072 10.3433C16.1309 8.0271 16.1309 5.67911 15.6072 3.36285C15.2934 2.16578 13.6846 0.677558 12.4052 0.402607C9.48226 -0.134202 6.51795 -0.134202 3.59432 0.402607C2.31559 0.677558 0.706851 2.16578 0.392336 3.36285C-0.130779 5.67905 -0.130779 8.02704 0.392336 10.3432C0.706851 11.5403 2.31656 13.0287 3.59528 13.3037C3.65231 13.3145 3.69377 13.3621 3.69377 13.4181V16.8112C3.69377 16.9808 3.90818 17.0643 4.03024 16.9415L7.26923 13.732C7.29261 13.7088 7.32483 13.6963 7.35835 13.6971C9.04394 13.7422 10.7312 13.6109 12.4052 13.3035ZM12.7152 5.85469C12.3001 3.60396 10.3632 2.0931 8.00502 2.02932L7.96529 2.02885C7.93286 2.02835 7.90045 2.02784 7.86817 2.02957C7.70097 2.03824 7.55276 2.17322 7.58408 2.34274C7.61934 2.53374 7.81822 2.5531 7.98217 2.56906L8.01058 2.57187C8.09348 2.58026 8.17665 2.5872 8.25981 2.59414C8.44404 2.6095 8.62825 2.62487 8.80952 2.6561C10.5581 2.95717 11.9589 4.36023 12.203 6.05614C12.2399 6.3124 12.2581 6.57129 12.2762 6.82998C12.2808 6.89529 12.2855 6.96151 12.2904 7.02676C12.3026 7.19042 12.3877 7.34311 12.5767 7.34092C12.7597 7.33881 12.8558 7.18325 12.8425 7.01953L12.8311 6.87559C12.8042 6.53384 12.7772 6.19095 12.7152 5.85469ZM10.5946 11.8581C10.6559 11.8744 10.7184 11.891 10.7817 11.9096C10.8358 11.8935 10.8908 11.88 10.9455 11.8665C11.0641 11.8374 11.1816 11.8085 11.2853 11.7548C11.8221 11.4765 12.1942 11.0403 12.45 10.5161C12.5896 10.2299 12.5042 9.95319 12.2561 9.74227C12.0159 9.53801 11.7579 9.36074 11.4976 9.18195L11.44 9.1423C11.155 8.94628 10.8683 8.75232 10.5726 8.57164C10.277 8.39102 9.92622 8.39388 9.65174 8.61054C9.55264 8.68879 9.47234 8.79228 9.39231 8.89544C9.2456 9.08455 9.09976 9.27254 8.84046 9.30178C8.62249 9.32632 8.42998 9.2479 8.24041 9.17067L8.18489 9.14816C6.88692 8.62675 6.09598 7.65869 5.62673 6.41374C5.56576 6.25201 5.57029 6.07656 5.66496 5.9278C5.71676 5.8465 5.78786 5.78584 5.86342 5.7258L5.91405 5.68522C5.983 5.62972 6.05202 5.57417 6.12634 5.52542C6.50686 5.27584 6.56446 4.82757 6.35451 4.46084C6.01306 3.86461 5.5914 3.32394 5.13235 2.80957C4.92001 2.57166 4.6332 2.49391 4.34245 2.62877C3.96994 2.80153 3.62598 3.03596 3.35867 3.34227C3.0738 3.66866 2.80327 4.11618 2.98694 4.54937L3.04931 4.69672C3.22961 5.12303 3.41022 5.55009 3.62049 5.96266C4.11499 6.9329 4.69998 7.84972 5.44739 8.66179C6.7617 10.0899 8.42094 11.0214 10.2238 11.7435C10.3417 11.7908 10.4657 11.8238 10.5946 11.8581ZM11.5888 6.51433C11.5878 6.52151 11.587 6.53116 11.5859 6.54257C11.5829 6.5763 11.5785 6.62551 11.5656 6.67257C11.503 6.90113 11.1441 6.92975 11.0614 6.69906C11.0369 6.63061 11.0333 6.55273 11.0331 6.47904C11.0323 5.99685 10.9237 5.51515 10.6719 5.09562C10.413 4.66443 10.0174 4.30194 9.55343 4.0826C9.27289 3.94999 8.96948 3.86757 8.66201 3.81844C8.57833 3.80508 8.49411 3.79499 8.40987 3.7849C8.35881 3.77878 8.30771 3.77266 8.25675 3.76582C8.0931 3.74387 8.00572 3.64318 8.01347 3.4875C8.02071 3.34161 8.13114 3.23668 8.29583 3.24565C8.83702 3.27533 9.35975 3.38824 9.84089 3.6342C10.8193 4.13441 11.3782 4.92398 11.5413 5.97827C11.544 5.99536 11.5472 6.0124 11.5504 6.02943C11.5562 6.05998 11.5619 6.09051 11.5643 6.12129C11.5708 6.20453 11.5756 6.28782 11.5812 6.3842L11.5888 6.51433ZM9.7988 6.18257C9.81914 6.3572 9.92474 6.46263 10.122 6.4592C10.2119 6.45334 10.304 6.39318 10.3328 6.27309C10.3492 6.20518 10.3424 6.13036 10.336 6.05912L10.3353 6.05214C10.2421 5.01306 9.58865 4.55674 8.67436 4.49302C8.52808 4.4828 8.39782 4.58367 8.37541 4.71292C8.35074 4.85495 8.43748 4.97752 8.59428 5.01462C8.66194 5.03063 8.7309 5.0367 8.79996 5.04278C8.8783 5.04968 8.95678 5.05659 9.0337 5.07802C9.14762 5.10976 9.25638 5.15895 9.35235 5.22647C9.55565 5.36944 9.6841 5.58566 9.74339 5.81896C9.76929 5.92091 9.78118 6.02651 9.793 6.13158L9.7988 6.18257Z" fill="white"/>
</svg>
