<svg width="17" height="16" viewBox="0 0 17 16" fill="none" xmlns="http://www.w3.org/2000/svg">
<path fill-rule="evenodd" clip-rule="evenodd" d="M0 7.99993C0 3.58843 3.58843 0 7.99993 0L8.00458 0.000132786C12.4161 0.000132786 16.0045 3.58856 16.0045 8.00007C16.0045 12.4114 12.4161 16 8.00458 16C6.37728 16 4.86757 15.5157 3.6025 14.6785L0.526684 15.6613L1.52377 12.689C0.564379 11.372 0 9.74948 0 7.99993ZM5.25806 3.66847C5.49313 3.67802 5.61073 3.69209 5.7659 4.06361C5.81602 4.18458 5.88487 4.35162 5.96033 4.53467C6.17523 5.05601 6.44369 5.70727 6.48544 5.79431C6.54185 5.91192 6.5984 6.07186 6.51836 6.22702C6.44835 6.37581 6.38649 6.4473 6.28353 6.56628C6.27581 6.5752 6.26787 6.58439 6.25966 6.5939C6.20934 6.65229 6.15988 6.70463 6.11055 6.75684C6.04462 6.82663 5.97891 6.89617 5.91164 6.97962C5.90976 6.98183 5.90787 6.98404 5.90598 6.98626C5.79941 7.1113 5.68359 7.24719 5.81766 7.47816C5.95398 7.70859 6.42425 8.47512 7.11566 9.09113C7.93621 9.82089 8.61387 10.0949 8.91953 10.2185C8.94677 10.2295 8.97106 10.2393 8.99223 10.2482C9.18496 10.3282 9.41552 10.3094 9.55661 10.1588C9.70955 9.99397 9.89338 9.73606 10.0847 9.4677C10.117 9.42233 10.1495 9.37667 10.1822 9.33111C10.342 9.10533 10.5441 9.07706 10.7559 9.15697C10.9722 9.23222 12.1152 9.7966 12.3502 9.9142C12.3982 9.93825 12.4429 9.95973 12.4841 9.97954C12.6446 10.0567 12.7521 10.1084 12.797 10.187C12.8536 10.2857 12.8536 10.7514 12.6607 11.297C12.4678 11.8424 11.7012 12.2941 11.0898 12.4258C10.6713 12.5151 10.1256 12.5857 8.28676 11.8238C6.10869 10.9219 4.64872 8.80562 4.35177 8.37517C4.32813 8.3409 4.31186 8.31732 4.30318 8.30588C4.29988 8.30133 4.29595 8.29596 4.29144 8.2898C4.14203 8.08552 3.35322 7.00705 3.35322 5.89307C3.35322 4.77764 3.90419 4.21771 4.15094 3.96695C4.15806 3.95972 4.16492 3.95274 4.17151 3.94601C4.36437 3.7485 4.68413 3.65918 4.98994 3.65918C5.07939 3.65962 5.1688 3.66272 5.25806 3.66847Z" fill="white"/>
</svg>
