<svg width="15" height="15" viewBox="0 0 15 15" fill="none" xmlns="http://www.w3.org/2000/svg">
<path d="M3.50877 0C1.57895 0 0 1.57896 0 3.5088V11.4912C0 13.421 1.57895 15 3.50877 15H11.4912C13.4211 15 15 13.421 15 11.4912V3.5088C15 1.57896 13.4211 0 11.4912 0H3.50877ZM12.0176 2.193C12.5439 2.193 12.8947 2.6316 12.8947 3.0702C12.8947 3.59652 12.4561 3.9474 12.0176 3.9474C11.4912 3.9474 11.1404 3.5088 11.1404 3.0702C11.0526 2.54388 11.4912 2.193 12.0176 2.193ZM7.54386 3.5088C9.73684 3.5088 11.579 5.26307 11.579 7.5438C11.579 9.7368 9.82456 11.579 7.54386 11.579C5.35088 11.579 3.50877 9.82452 3.50877 7.5438C3.50877 5.35079 5.35088 3.5088 7.54386 3.5088ZM7.54386 4.386C5.78948 4.386 4.47369 5.78952 4.47369 7.4562C4.47369 9.12288 5.8772 10.5264 7.54386 10.5264C9.29825 10.5264 10.614 9.12288 10.614 7.4562C10.614 5.78952 9.29825 4.386 7.54386 4.386Z" fill="white" fill-opacity="0.7"/>
</svg>
