<svg width="26" height="20" viewBox="0 0 26 20" fill="none" xmlns="http://www.w3.org/2000/svg">
<path d="M24.9866 1.71686C24.0481 0.497419 22.3153 0 19.0061 0H6.99366C3.60872 0 1.84659 0.529505 0.911594 1.82778C0 3.09361 0 4.9587 0 7.54004V12.4601C0 17.4609 1.0816 20 6.99366 20H19.0062C21.8759 20 23.4661 19.5611 24.4949 18.4849C25.5499 17.3814 26 15.5795 26 12.4601V7.54004C26 4.8178 25.9295 2.9417 24.9866 1.71686ZM16.6921 10.6793L11.2373 13.7954C11.1153 13.865 10.982 13.8996 10.8488 13.8996C10.698 13.8996 10.5475 13.8552 10.4143 13.767C10.1633 13.6008 10.0101 13.3035 10.0101 12.9829V6.77072C10.0101 6.45059 10.1629 6.15357 10.4133 5.98728C10.6639 5.82098 10.9754 5.80961 11.2354 5.95721L16.6902 9.0532C16.9677 9.21069 17.142 9.52385 17.1424 9.86551C17.1427 10.2075 16.9692 10.5211 16.6921 10.6793Z" fill="#82D0F5"/>
</svg>
