<svg width="20" height="15" viewBox="0 0 20 15" fill="none" xmlns="http://www.w3.org/2000/svg">
<path d="M19.2399 1.28764C18.5361 0.373064 17.2365 0 14.7546 0H5.74525C3.20654 0 1.88494 0.397129 1.1837 1.37084C0.5 2.32021 0.5 3.71903 0.5 5.65503V9.34504C0.5 13.0957 1.3112 15 5.74525 15H14.7546C16.9069 15 18.0996 14.6708 18.8711 13.8637C19.6624 13.036 20 11.6846 20 9.34504V5.65503C20 3.61335 19.9471 2.20628 19.2399 1.28764ZM13.0191 8.00947L8.92796 10.3465C8.8365 10.3988 8.73649 10.4247 8.63659 10.4247C8.52349 10.4247 8.41065 10.3914 8.31069 10.3253C8.12249 10.2006 8.00756 9.97765 8.00756 9.73715V5.07804C8.00756 4.83794 8.12217 4.61518 8.31 4.49046C8.49789 4.36573 8.73158 4.35721 8.92652 4.46791L13.0176 6.7899C13.2258 6.90802 13.3565 7.14289 13.3568 7.39914C13.357 7.65559 13.2269 7.8908 13.0191 8.00947Z" fill="white" fill-opacity="0.7"/>
</svg>
